<svg id="Layer_1" enable-background="new 0 0 256 256" height="512" viewBox="0 0 256 256" width="512" xmlns="http://www.w3.org/2000/svg"><g><g><g><path d="m35.897 137.831c25.885 24.997 37.749 54.781 46.023 63.088 3.442 3.456 5.495 8.052 5.431 12.929l-.475 36.112c-.022 1.672 1.327 3.04 3 3.04h73.303c1.671 0 3.02-1.365 3-3.036l-.526-44.29c-.104-8.743 4.933-10.215 7.653-20.4 11.954-44.76 11.564-41.988 37.478-107.994 2.423-6.172-.908-13.182-7.408-15.104-5.725-1.692-11.764 1.57-13.945 7.126l-18.419 46.914-5.701-2.935 17.418-81.946c1.341-6.311-2.163-12.849-8.334-14.732-7.008-2.138-14.187 2.201-15.677 9.211l-16.351 76.927c-3.254-.66-5.53-.605-6.885-.605l1.513-86.663c.118-6.774-5.28-12.359-12.054-12.471l-.122-.002c-6.762-.112-12.336 5.276-12.454 12.037l-1.52 87.099c-5.812 0-6.935-.068-9.418.263l-6.26-71.546c-.59-6.746-6.538-11.735-13.283-11.144l-.114.01c-6.745.591-11.733 6.538-11.143 13.282l2.08 23.772 3.898 66.635-3.434 7.778-32.328-31.215c-5.675-5.48-14.678-6.142-20.738-1.091-7.137 5.949-7.378 16.576-.879 22.852z" fill="#f9cfcf"/></g></g><g><g><path d="m111.092 178.637-.209-1.135c-3.801-20.633-18.499-37.653-38.357-44.42-1.045-.356-1.604-1.493-1.248-2.538.355-1.045 1.491-1.605 2.538-1.248 21.228 7.232 36.938 25.426 41.001 47.481l.209 1.135c.2 1.086-.518 2.129-1.604 2.329-1.095.201-2.131-.523-2.33-1.604z" fill="#3762cc"/></g></g><g><g><path d="m163.178 255h-73.303c-1.348 0-2.612-.528-3.559-1.488-.947-.959-1.458-2.23-1.441-3.578l.476-36.112c.056-4.215-1.666-8.296-4.848-11.491-3.108-3.12-6.558-8.875-10.925-16.16-7.832-13.064-18.558-30.956-35.07-46.901l-16.672-16.1c-3.537-3.415-5.461-8.193-5.282-13.108.18-4.912 2.465-9.547 6.27-12.718 6.786-5.657 16.849-5.146 23.407 1.188l30.267 29.228 2.082-4.714-3.87-66.152-2.076-23.715c-.685-7.832 5.129-14.762 12.96-15.449l.118-.01c3.792-.333 7.488.833 10.406 3.281s4.708 5.886 5.04 9.681l6.083 69.529c1.37-.092 1.934-.072 5.637-.072l1.486-85.134c.137-7.851 6.646-14.132 14.487-14.002l.121.002c3.812.063 7.369 1.606 10.018 4.347 2.648 2.74 4.07 6.348 4.004 10.159l-1.478 84.647c1.091.038 2.191.135 3.294.291l15.952-75.049c.832-3.914 3.288-7.325 6.737-9.358 3.498-2.062 7.575-2.539 11.48-1.35 7.021 2.143 11.284 9.636 9.706 17.061l-17.101 80.451 2.375 1.222 17.609-44.854c2.595-6.608 9.788-10.261 16.374-8.313 3.664 1.083 6.6 3.559 8.268 6.971 1.646 3.366 1.804 7.295.436 10.781-2.851 7.262-5.384 13.692-7.65 19.444-18.429 46.784-19.148 48.61-29.758 88.335-1.272 4.764-3.001 7.691-4.527 10.274-1.805 3.056-3.109 5.263-3.058 9.585l.525 44.29c.016 1.347-.497 2.616-1.443 3.574-.947.959-2.21 1.487-3.557 1.487zm-133.475-157.523c-2.994 0-5.954.969-8.317 2.939-2.976 2.481-4.693 5.958-4.833 9.792-.138 3.782 1.342 7.458 4.063 10.085l16.672 16.1c16.893 16.313 27.776 34.466 35.722 47.722 4.227 7.051 7.566 12.62 10.329 15.393 3.948 3.964 6.083 9.066 6.014 14.367l-.476 36.112c-.005.364.178.604.288.715.109.111.348.298.712.298h73.303c.363 0 .602-.186.711-.297.11-.111.293-.352.289-.715l-.525-44.29c-.064-5.441 1.722-8.465 3.614-11.667 1.463-2.477 2.977-5.039 4.107-9.272 10.668-39.946 11.391-41.78 29.9-88.769 2.266-5.75 4.797-12.179 7.648-19.439.96-2.445.849-5.201-.306-7.563-1.169-2.394-3.232-4.131-5.808-4.892-4.617-1.364-9.673 1.245-11.517 5.939l-18.418 46.914c-.207.526-.627.941-1.156 1.14-.528.201-1.118.167-1.621-.093l-5.701-2.935c-.802-.413-1.229-1.312-1.041-2.194l17.418-81.946c1.15-5.413-1.907-10.861-6.961-12.403-2.822-.86-5.763-.517-8.282.969-2.486 1.465-4.256 3.924-4.856 6.745l-16.351 76.927c-.228 1.073-1.283 1.762-2.354 1.544-3.046-.618-5.177-.565-6.488-.565-.537 0-1.05-.215-1.426-.598s-.583-.9-.573-1.437l1.513-86.664c.048-2.742-.976-5.337-2.881-7.309s-4.465-3.083-7.207-3.128l-.121-.002c-5.616-.087-10.323 4.425-10.422 10.073l-1.52 87.099c-.019 1.091-.909 1.965-2 1.965-5.834 0-6.83-.063-9.153.246-.543.072-1.089-.081-1.515-.421-.426-.342-.694-.843-.742-1.387l-6.26-71.545c-.239-2.73-1.527-5.204-3.626-6.965s-4.756-2.6-7.49-2.36l-.118.01c-5.631.494-9.814 5.48-9.322 11.115l2.08 23.772 3.902 66.692c.019.317-.039.634-.167.924l-3.434 7.779c-.264.598-.804 1.029-1.445 1.155-.639.126-1.303-.07-1.774-.524l-32.328-31.219c-2.697-2.605-6.247-3.932-9.75-3.932z" fill="#3762cc"/></g></g><g><g><circle cx="189.058" cy="190.478" fill="#6bdddd" r="50"/></g></g><g><g><g><path d="m176.029 222.97c-.102 0-.203-.002-.304-.008-1.765-.089-3.401-.953-4.471-2.359l-17.879-23.5c-2.006-2.637-1.495-6.402 1.143-8.408s6.401-1.495 8.408 1.143l13.574 17.842 39.082-41.807c2.264-2.42 6.061-2.549 8.48-.286 2.421 2.263 2.549 6.06.286 8.48l-43.937 47c-1.137 1.217-2.726 1.903-4.382 1.903z" fill="#4671c6"/></g></g></g><g><g><path d="m202.459 95.7-7.326-2.54c-1.157-.401-2.197-1.033-3.09-1.827-.794-.893-1.426-1.934-1.827-3.09l-2.54-7.326c-.536-1.545-2.72-1.545-3.256 0l-2.54 7.326c-.401 1.157-1.033 2.197-1.827 3.09-.893.794-1.934 1.426-3.09 1.827l-7.326 2.54c-1.545.536-1.545 2.72 0 3.256l7.326 2.539c1.157.401 2.197 1.033 3.091 1.827.794.893 1.426 1.934 1.827 3.09l2.54 7.326c.536 1.545 2.72 1.545 3.256 0l2.54-7.326c.401-1.157 1.033-2.197 1.827-3.09.893-.794 1.934-1.426 3.091-1.827l7.326-2.539c1.543-.536 1.543-2.72-.002-3.256z" fill="#a4c9ff"/></g></g><g><g><path d="m239.943 39.831-9.573-3.319c-1.512-.524-2.871-1.35-4.039-2.388-1.037-1.167-1.863-2.527-2.387-4.038l-3.319-9.573c-.7-2.019-3.555-2.019-4.255 0l-3.318 9.573c-.524 1.511-1.35 2.871-2.387 4.038-1.167 1.038-2.527 1.864-4.038 2.388l-9.573 3.319c-2.019.7-2.019 3.555 0 4.255l9.573 3.318c1.512.524 2.871 1.35 4.039 2.388 1.037 1.167 1.863 2.527 2.387 4.038l3.318 9.573c.7 2.019 3.555 2.019 4.255 0l3.319-9.573c.524-1.511 1.35-2.871 2.387-4.038 1.167-1.038 2.527-1.864 4.039-2.388l9.573-3.318c2.017-.7 2.017-3.555-.001-4.255z" fill="#a4c9ff"/></g></g><g><g><path d="m79.558 168.342-7.326-2.54c-1.157-.401-2.197-1.033-3.09-1.827-.794-.893-1.426-1.934-1.827-3.09l-2.54-7.326c-.536-1.545-2.72-1.545-3.256 0l-2.539 7.326c-.401 1.157-1.033 2.197-1.827 3.09-.893.794-1.934 1.426-3.09 1.827l-7.326 2.54c-1.545.536-1.545 2.72 0 3.256l7.326 2.539c1.157.401 2.197 1.033 3.091 1.827.794.893 1.426 1.934 1.827 3.09l2.539 7.326c.536 1.545 2.72 1.545 3.256 0l2.54-7.326c.401-1.157 1.033-2.197 1.827-3.09.893-.794 1.934-1.426 3.091-1.827l7.326-2.539c1.543-.536 1.543-2.72-.002-3.256z" fill="#a4c9ff"/></g></g><g><g><path d="m189.058 242.478c-28.673 0-52-23.327-52-52s23.327-52 52-52 52 23.327 52 52-23.327 52-52 52zm0-100c-26.467 0-48 21.533-48 48s21.533 48 48 48 48-21.533 48-48-21.533-48-48-48z" fill="#3762cc"/></g></g><g><g><path d="m186.049 116.897c-1.61 0-2.991-.982-3.518-2.503l-2.54-7.326c-.292-.841-.747-1.624-1.354-2.328-.705-.608-1.487-1.063-2.328-1.355l-7.326-2.54c-1.521-.527-2.503-1.908-2.503-3.518s.983-2.99 2.504-3.517l7.325-2.54c.842-.292 1.625-.748 2.329-1.354.608-.705 1.063-1.488 1.354-2.328l2.54-7.326c.527-1.521 1.908-2.503 3.518-2.503 1.61 0 2.99.983 3.517 2.504l2.54 7.325c.292.841.748 1.624 1.355 2.329.704.607 1.487 1.063 2.329 1.354l7.325 2.54c1.521.527 2.504 1.907 2.504 3.517s-.982 2.991-2.503 3.518l-7.326 2.54c-.841.292-1.624.747-2.328 1.355-.607.704-1.063 1.487-1.355 2.328l-2.539 7.325c-.53 1.52-1.91 2.503-3.52 2.503zm-15.001-19.569 6.57 2.278c1.375.477 2.642 1.224 3.764 2.222.059.052.114.107.166.166.997 1.122 1.745 2.388 2.222 3.763l2.278 6.571 2.278-6.571c.478-1.376 1.225-2.642 2.222-3.763.052-.059.107-.114.166-.166 1.122-.998 2.389-1.746 3.764-2.222l6.57-2.278-6.571-2.278c-1.376-.478-2.643-1.225-3.764-2.222-.059-.052-.114-.107-.167-.166-.997-1.123-1.745-2.388-2.222-3.763l-2.278-6.571-2.278 6.571c-.477 1.375-1.224 2.641-2.221 3.764-.052.059-.107.114-.167.166-1.122.997-2.388 1.745-3.764 2.222zm30.756.262h.01zm-.001 0c.001 0 .001 0 0 0z" fill="#3762cc"/></g></g><g><g><path d="m218.499 66.917c-1.838 0-3.415-1.123-4.017-2.859l-3.319-9.573c-.411-1.187-1.055-2.288-1.915-3.276-.988-.86-2.09-1.504-3.276-1.915l-9.573-3.318c-1.737-.603-2.859-2.18-2.859-4.018s1.123-3.415 2.859-4.017l9.573-3.318c1.187-.412 2.289-1.056 3.276-1.915.86-.988 1.504-2.09 1.915-3.276l3.319-9.573c.602-1.737 2.179-2.859 4.017-2.859s3.415 1.122 4.017 2.859l3.319 9.572c.411 1.186 1.055 2.288 1.915 3.276.987.859 2.089 1.503 3.276 1.915l9.572 3.318c1.737.602 2.859 2.178 2.859 4.017 0 1.838-1.122 3.415-2.859 4.018l-9.572 3.318c-1.187.411-2.288 1.055-3.277 1.915-.859.988-1.503 2.09-1.914 3.276l-3.319 9.573c-.603 1.737-2.18 2.86-4.017 2.86zm0-45.917c-.179 0-.216.106-.238.169l-3.319 9.573c-.597 1.72-1.532 3.306-2.782 4.711-.052.059-.107.114-.166.166-1.405 1.249-2.99 2.186-4.712 2.783l-9.573 3.318c-.063.022-.169.059-.169.238s.106.216.169.238l9.573 3.318c1.721.596 3.306 1.533 4.712 2.783.058.052.114.107.166.166 1.25 1.406 2.186 2.991 2.782 4.712l3.319 9.572c.022.063.059.169.238.169s.215-.106.237-.169l3.319-9.573c.596-1.72 1.532-3.306 2.781-4.711.052-.059.108-.114.167-.167 1.406-1.25 2.992-2.186 4.713-2.782l9.572-3.318c.063-.022.169-.059.169-.238s-.106-.216-.169-.238l-9.572-3.318c-1.722-.597-3.307-1.534-4.712-2.783-.059-.052-.114-.107-.166-.166-1.25-1.406-2.185-2.991-2.782-4.711l-3.319-9.573c-.023-.063-.06-.169-.238-.169z" fill="#3762cc"/></g></g><g><g><path d="m63.147 189.539c-1.609 0-2.99-.983-3.518-2.503l-2.54-7.326c-.291-.84-.747-1.623-1.354-2.328-.704-.607-1.487-1.063-2.329-1.355l-7.325-2.54c-1.521-.527-2.503-1.908-2.503-3.518 0-1.609.982-2.99 2.503-3.517l7.325-2.54c.841-.292 1.624-.748 2.328-1.354.608-.706 1.064-1.488 1.355-2.328l2.54-7.326c.527-1.521 1.908-2.503 3.518-2.503s2.99.983 3.518 2.503l2.54 7.326c.291.84.747 1.623 1.355 2.329.704.607 1.487 1.063 2.329 1.354l7.325 2.54c1.521.527 2.503 1.908 2.503 3.517 0 1.61-.982 2.991-2.503 3.518l-7.325 2.54c-.841.292-1.624.748-2.329 1.355-.608.706-1.063 1.488-1.354 2.328l-2.54 7.326c-.528 1.519-1.909 2.502-3.519 2.502zm-15-19.569 6.57 2.278c1.376.478 2.643 1.225 3.765 2.223.059.052.114.107.166.166.998 1.123 1.745 2.389 2.221 3.764l2.278 6.57 2.278-6.571c.476-1.374 1.224-2.64 2.221-3.763.052-.059.107-.114.166-.166 1.122-.998 2.388-1.745 3.764-2.223l6.571-2.277-6.57-2.278c-1.376-.478-2.643-1.225-3.764-2.222-.059-.052-.114-.107-.167-.166-.998-1.124-1.746-2.39-2.222-3.764l-2.278-6.57-2.278 6.571c-.476 1.374-1.224 2.64-2.222 3.764-.052.059-.107.114-.167.166-1.121.997-2.387 1.745-3.763 2.222zm30.756.262h.01z" fill="#3762cc"/></g></g></g></svg>