<?xml version="1.0" encoding="utf-8"?>
<!-- Generator: Adobe Illustrator 21.1.0, SVG Export Plug-In . SVG Version: 6.00 Build 0)  -->
<svg version="1.1" id="Capa_1" xmlns="http://www.w3.org/2000/svg" xmlns:xlink="http://www.w3.org/1999/xlink" x="0px" y="0px"
	 viewBox="0 0 1200 1200" enable-background="new 0 0 1200 1200" xml:space="preserve">
<g>
	<path fill="#7DD1CA" d="M66.289,438.278c14.161,35.462,38.198,66.893,47.854,103.837c12.04,46.058-15.377,71.682-31.57,110.077
		c-20.059,47.562-23.862,88.941-10.494,139.794c44.482,169.225,202.322,294.857,373.996,328.677
		c2.492,0.491,4.993,0.905,7.489,1.362c-7.29-1.561-14.541-3.229-21.72-5.076c-71.102-18.291-136.624-50.469-193.541-93.441
		c35.207-12.932,90.122-31.688,137.492-54.742l-5.741-15.178l69.279-64.94l20.328,21.864c6.721-11.813,10.166-24.726,9.218-38.888
		v-12.83c-2.145-2.183-4.274-4.382-6.388-6.6c-1.535-21.149-3.207-41.068-4.771-58.417c-10.033-10.391-19.134-22.032-27.001-34.845
		c-13.426-21.868-23.607-46.297-30.598-71.733c-0.416-1.514-2.385-13.218-4.164-22.216c-27.002,2.937-63.782-23.032-74.309-42.376
		c-14.772-27.143-23.949-99.197,23.026-99.146c4.88,0.005,12.211,1.925,19.854,5.046c-1.387-2.917-2.412-6.001-2.959-9.063
		c-2.374-13.307,0.414-27.19-2.432-40.404c-5.632-26.153-19.569-48.838-23.191-76.137c-3.539-26.678-1.985-54.048,4.807-80.1
		c3.696-14.175,9.094-28.299,18.807-39.265c22.473-25.366,56.74-32.812,78.554-60.038c21.205-26.465,39.793-58.688,72.762-71.897
		c16.438-6.585,34.8-6.055,52.412-4.255c33.124,3.384,65.822,10.918,97.087,22.369c20.864,7.642,41.81,17.559,56.034,34.628
		c16.076,19.293,20.084,45.348,13.907,68.624c22.096,17.7,42.238,37.455,59.968,58.901c4.326,5.233,8.571,10.671,10.864,16.895
		c3.381,9.182,2.222,19.169,1.445,28.836c-2.111,26.263-1.088,52.738,3.044,78.797c2.806,17.69,7.015,35.914,2.005,53.189
		c-1.782,6.141-5.233,12.07-9.769,17.027c5.748-1.975,11.034-3.149,14.827-3.153c46.975-0.052,37.798,72.003,23.026,99.146
		c-9.546,17.543-40.686,40.528-66.543,42.474c-0.876,10.429-2.364,20.793-4.587,30.962c-9.743,44.584-34.365,81.364-66.054,108.048
		c-0.667,13.991-1.338,29.356-1.951,45.512c-3.057,2.553-6.135,5.061-9.233,7.52c-0.601,11.08-0.038,26.07,4.414,42.183
		l9.907-10.656l69.279,64.94l-9.055,23.94c2.048,1.022,4.101,2.031,6.155,3.036c2.436-1.478,4.853-2.918,7.318-4.454
		c0,0,66.808,34.266,113.186,55.896c-41.595,29.74-87.519,53.797-136.631,71.103c68.868-19.953,135.377-49.545,196.859-86.018
		c28.745-17.052,61.548-41.224,87.818-69.856c29.729-32.409,55.321-75.511,47.283-121.205
		c-8.303-47.191-61.014-74.076-57.264-124.21c4.589-61.328,81.174-83.248,107.642-132.557
		c37.183-69.304,2.231-148.158-40.468-209.431c-60.465-86.763-155.566-139.908-249.427-183.395
		c-90.265-41.82-194.784-99.954-295.147-108.745c-84.867-7.434-173.414,6.988-253.676,34.525
		C152.905,151.158-1.003,269.759,66.289,438.278z"/>
	<path fill="#7DD1CA" d="M387.884,487.179c-0.012-3.148-0.025-6.255-0.037-9.343C387.367,480.938,387.464,484.068,387.884,487.179z"
		/>
	<path fill="#FF917B" d="M768.061,980.564c-2.054-1.006-4.107-2.014-6.155-3.036l-3.277,8.665
		C761.746,984.368,764.893,982.485,768.061,980.564z"/>
	<path fill="#FF917B" d="M547.803,1005.311l6.263,41.345c8.505,0.641,17.432,0.793,26.799,0.375l12.346-41.719l98.563-106.008
		c-4.452-16.113-5.014-31.103-4.414-42.183c-47.142,37.425-98.848,63.112-149.621,48.897c-25.997-7.279-48.202-26.203-68.861-47.225
		v12.83c0.948,14.163-2.497,27.075-9.218,38.888L547.803,1005.311z"/>
	<path fill="#D1806F" d="M537.74,906.017c50.773,14.215,102.479-11.472,149.621-48.897c3.099-2.46,6.176-4.967,9.233-7.52
		c0.613-16.156,1.284-31.52,1.951-45.512c-18.454,15.539-39.292,27.674-61.017,35.883c-62.782,23.721-132.068,3.255-179.808-46.197
		c1.564,17.35,3.236,37.269,4.771,58.417c2.114,2.218,4.243,4.417,6.388,6.6C489.537,879.814,511.743,898.739,537.74,906.017z"/>
	<path fill="#606060" d="M615.398,1043.109c-12.899-19.832-22.187-35.059-22.187-37.797l-12.346,41.719
		C591.774,1046.543,603.281,1045.272,615.398,1043.109z"/>
	<path fill="#606060" d="M525.983,1042.544c8.798,1.952,18.152,3.363,28.083,4.112l-6.263-41.345
		C547.803,1008.023,538.688,1022.991,525.983,1042.544z"/>
	<path fill="#FF917B" d="M774.529,539.299c0.713,4.445,1.185,8.969,1.185,13.612c0,24.058-9.98,45.804-25.979,61.404
		c-4.826,13.167-9.292,24.552-12.437,32.377c19.05,0.105,32.87,0.721,32.626,6.739c-0.156,3.889-0.413,7.772-0.739,11.648
		c25.857-1.946,56.997-24.932,66.543-42.474c14.771-27.143,23.949-99.197-23.026-99.146c-3.794,0.004-9.079,1.178-14.827,3.153
		C791.69,533.367,783.463,538.253,774.529,539.299z M814.882,551.598c7.131,2.558,12.746,9.262,15.409,18.389
		c5.373,18.438-1.454,39.024-18.735,56.478l-3.493-3.458c7.585-7.661,18.656-21.74,19.146-38.889
		c-5.346,11.366-17.931,28.545-46.727,35.748l-1.192-4.769c38.526-9.635,45.817-37.887,46.685-42.027
		c-0.141-0.57-0.236-1.132-0.404-1.707c-2.217-7.599-6.717-13.119-12.351-15.137c-5.009-1.803-10.56-0.774-16.058,2.979
		l-2.766-4.064C801.151,550.54,808.426,549.282,814.882,551.598z"/>
	<path fill="#0E2C47" d="M797.163,559.205c5.499-3.753,11.049-4.782,16.058-2.979c5.633,2.018,10.134,7.538,12.351,15.137
		c0.168,0.575,0.263,1.137,0.404,1.707c-0.869,4.14-8.16,32.392-46.685,42.027l1.192,4.769
		c28.795-7.202,41.381-24.381,46.727-35.748c-0.49,17.149-11.561,31.228-19.146,38.889l3.493,3.458
		c17.281-17.455,24.108-38.04,18.735-56.478c-2.663-9.127-8.279-15.831-15.409-18.389c-6.455-2.315-13.731-1.057-20.486,3.543
		L797.163,559.205z"/>
	<path fill="#FF917B" d="M413.807,657.14c-4.373-8.1-44.567-83.427-43.821-115.148c0.032-1.417,0.876-2.531,2.038-3.166
		c-3.066-2.79-5.625-6.389-7.496-10.321c-7.643-3.122-14.974-5.041-19.854-5.046c-46.975-0.052-37.798,72.003-23.026,99.146
		c10.527,19.344,47.307,45.313,74.309,42.376c-1.137-5.746-2.196-10.397-2.722-10.559
		C400.597,655.661,407.399,656.531,413.807,657.14z M376.894,619.865c-28.797-7.202-41.382-24.381-46.728-35.747
		c0.49,17.148,11.562,31.227,19.147,38.888l-3.494,3.458c-17.28-17.455-24.108-38.04-18.734-56.478
		c2.661-9.127,8.278-15.831,15.408-18.389c6.455-2.321,13.731-1.063,20.487,3.543l-2.771,4.064
		c-5.495-3.75-11.047-4.785-16.056-2.979c-5.632,2.021-10.133,7.538-12.349,15.137c-0.17,0.582-0.267,1.151-0.409,1.727
		c0.884,4.431,7.935,32.313,46.691,42.007L376.894,619.865z"/>
	<path fill="#0E2C47" d="M331.395,573.09c0.142-0.577,0.239-1.146,0.409-1.727c2.216-7.599,6.716-13.116,12.349-15.137
		c5.009-1.806,10.562-0.771,16.056,2.979l2.771-4.064c-6.756-4.606-14.031-5.864-20.487-3.543
		c-7.131,2.558-12.747,9.262-15.408,18.389c-5.375,18.438,1.454,39.024,18.734,56.478l3.494-3.458
		c-7.585-7.661-18.657-21.74-19.147-38.888c5.346,11.366,17.931,28.545,46.728,35.747l1.192-4.769
		C339.33,605.403,332.279,577.521,331.395,573.09z"/>
	<path fill="#FF917B" d="M649.256,632.754c-1.643-2.101-2.894-4.298-3.813-6.544c-24.769-15.073-41.401-42.245-41.401-73.299
		c0-16.942,5-32.709,13.506-46.029c-31.986-28.934-62.981-7.405-71.899,0.057c8.485,13.308,13.471,29.053,13.471,45.972
		c0,7.711-1.116,15.15-3.032,22.264c6.908,0.591,6.7,10.484-0.636,10.484c-1.03,0-1.907-0.208-2.657-0.545
		c-8.047,19.793-23.278,35.864-42.435,45.093c-0.7,1.12-1.517,2.213-2.41,3.286c11.8-8.261,23.302-17.03,38.743-23.663
		c-1.343-3.107,0.39-7.405,5.222-7.405c2.895,0,4.673,1.543,5.353,3.446c1.116-0.362,2.237-0.701,3.371-1.03
		c2.1-32.045,11.99-63.213,22.419-90.726c-0.727,1.917,13.039,36.334,18.07,74.782c0.268-0.03,0.528-0.073,0.819-0.073
		c7.46,0,7.543,10.209,0.316,10.513c0.187,2.241,0.329,4.486,0.441,6.731c4.492,2.1,8.857,4.514,13.139,7.126
		c0.946-1.017,2.375-1.702,4.298-1.702c5.002,0,6.673,4.588,5.067,7.71c6.623,4.445,13.151,9.095,19.777,13.44
		c0.585-0.174,1.217-0.296,1.94-0.296C647.81,632.346,648.579,632.501,649.256,632.754z"/>
	<path fill="#FF917B" d="M643.832,614.951c0.665-5.797,3.624-11.484,8.858-16.442c-0.856,0.524-1.925,0.856-3.237,0.856
		c-7.573,0-7.56-10.541,0-10.541c5.416,0,6.93,5.377,4.602,8.448c1.27-1.092,2.615-2.157,4.121-3.16
		c19.365-12.907,50.764-12.907,70.129,0c6.921,4.612,11.323,10.255,13.297,16.184c0.139-0.125,0.276-0.25,0.413-0.376
		c8.585-23.54,18.123-52.25,22.956-75.34c-8.265-33.831-38.752-59.047-75.093-59.047c-42.667,0-77.379,34.712-77.379,77.378
		C612.5,578.318,624.864,600.835,643.832,614.951z M657.068,531.964c0-11.569,8.182-20.947,18.275-20.947
		s18.274,9.378,18.274,20.947c0,7.764-3.727,14.463-9.201,18.082c1.779,0.309,3.544,0.709,5.266,1.255
		c4.182,1.253,8.109,3.512,11.319,6.529c-4.498,0.15-8.427-0.234-12.416-0.181c-3.943-0.063-7.798-0.102-11.689-0.008l-11.793,0.236
		c-4.017,0.079-8.071,0.158-12.501-0.047c3.319-3.002,7.297-4.9,11.385-6.276c1.107-0.359,2.258-0.553,3.391-0.82
		C661.294,547.334,657.068,540.244,657.068,531.964z"/>
	<path fill="#FF917B" d="M429.538,640.852c-10.302-6.866-15.068-16-14.408-24.991c-16.974-15.692-27.682-38.067-27.682-62.95
		c0-2.928,0.152-5.82,0.44-8.674c-3.633,0.573-7.085-0.074-10.238-1.578c-0.282,31.144,42.777,110.631,43.215,111.433
		c0.642,1.18,0.535,2.516-0.056,3.616c28.628,1.843,47.771-2.623,63.169-9.818C465.922,652.996,444.259,650.663,429.538,640.852z"/>
	<path fill="#FF917B" d="M652.527,636.784c0.336,0.154,0.679,0.301,1.021,0.449c-0.391-0.349-0.792-0.696-1.161-1.053
		C652.442,636.381,652.496,636.579,652.527,636.784z"/>
	<path fill="#FF917B" d="M728.306,640.852c-3.503,2.334-7.408,4.232-11.555,5.722c3.811,0.054,7.536,0.073,11.156,0.085
		c0.885-2.191,1.944-4.841,3.118-7.812C730.155,639.529,729.273,640.207,728.306,640.852z"/>
	<path fill="#FF917B" d="M444.465,472.159c1.735-1.988,3.572-3.908,5.56-5.697c18.949-17.053,51.874-26.165,67.207-4.323
		c0.909,1.296,0.024,3.084-1.73,3.432l-21.215,4.211c18.691,4.727,34.94,15.552,46.501,30.288
		c11.072-8.838,46.127-31.602,81.69-0.14c10.298-13.071,24.278-23.076,40.394-28.436l-18.755-0.824
		c-1.787-0.078-2.933-1.712-2.23-3.131c11.848-23.912,45.772-19.893,67.086-5.908c3.908,2.565,7.535,5.498,10.692,8.764
		c0.004,0.004,0.008,0.008,0.012,0.012c0.645,0.695,0.679,1.541,0.321,2.228c20.661,7.78,37.509,23.27,47.075,42.989
		c-1.644-39.108-23.952-77.004-45.696-111.779c-16.234-25.963-32.784-51.972-55.793-73.457c-0.183-0.17-0.39-0.34-0.576-0.511
		c-12.757,2.32-25.98,2.693-38.945,1.868c-15.913-1.013-31.885-3.628-47.72-1.756c-28.381,3.355-38.53,23.384-56.416,42.218
		c-23.636,24.891-58.025,35.783-87.462,53.437c-6.392,3.834-13.323,6.49-20.577,8.154c-4.964,1.139-10.615,1.256-15.351,3.205
		c-6.264,2.578-6.237,8.278-6.275,14.067c-0.035,5.466-1.019,10.514-2.129,15.569c-0.787,3.588-1.638,7.179-2.259,10.926
		c-0.014,0.09-0.016,0.18-0.029,0.27c0.012,3.087,0.025,6.195,0.037,9.343c0.607,4.481,1.878,8.921,3.137,13.165
		c1.569,5.286,3.409,10.882,4.509,16.438C405.183,496.097,422.807,479.914,444.465,472.159z"/>
	<path fill="#FF917B" d="M766.266,564.665c-2.138,7.323-4.468,14.735-6.882,22.029C762.727,579.848,765.072,572.453,766.266,564.665
		z"/>
	<path fill="#FF917B" d="M395.906,552.911c0,20.896,8.362,39.851,21.87,53.788c2.376-4.595,6.259-8.92,11.762-12.588
		c19.366-12.907,50.765-12.907,70.13,0c10.078,6.716,14.862,15.603,14.452,24.403c21.898-13.681,36.543-37.935,36.543-65.603
		c0-42.666-34.711-77.378-77.379-77.378C430.618,475.533,395.906,510.245,395.906,552.911z M516.54,582.93
		c7.573,0,7.56,10.54,0,10.54C508.968,593.47,508.98,582.93,516.54,582.93z M457.273,531.964c0-11.569,8.181-20.947,18.274-20.947
		c10.093,0,18.275,9.378,18.275,20.947c0,7.764-3.727,14.463-9.202,18.082c1.78,0.309,3.545,0.709,5.267,1.255
		c4.182,1.253,8.108,3.512,11.319,6.529c-4.499,0.15-8.428-0.234-12.417-0.181c-3.943-0.063-7.798-0.102-11.688-0.008l-11.794,0.236
		c-4.017,0.079-8.07,0.158-12.501-0.047c3.319-3.002,7.297-4.9,11.386-6.276c1.106-0.359,2.258-0.553,3.391-0.82
		C461.5,547.333,457.273,540.244,457.273,531.964z"/>
	<path fill="#F27668" d="M728.305,594.112c-19.365-12.907-50.764-12.907-70.129,0c-1.505,1.003-2.85,2.068-4.121,3.16
		c-0.363,0.479-0.814,0.9-1.366,1.237c-5.234,4.958-8.193,10.646-8.858,16.442c8.305,6.18,17.861,10.731,28.245,13.189l36.67-26.404
		c0.733-0.534,1.757-0.361,2.287,0.372c0.529,0.735,0.362,1.759-0.372,2.288l-9.273,6.677c7.163,0.371,7.034,10.506-0.389,10.506
		c-4.234,0-6.092-3.295-5.59-6.201l-18.975,13.663c4.375,0.771,8.85,1.248,13.443,1.248c1.013,0,1.997-0.113,3-0.152l24.006-17.284
		c0.735-0.531,1.758-0.363,2.288,0.372c0.528,0.735,0.361,1.759-0.372,2.288l-19.683,14.171
		c16.247-1.946,30.922-8.956,42.484-19.388C739.628,604.367,735.226,598.724,728.305,594.112z M702.525,593.281l-38.963,28.052
		c-0.291,0.209-0.625,0.308-0.957,0.308c-0.509,0-1.01-0.237-1.331-0.68c-0.529-0.735-0.361-1.759,0.372-2.288l6.818-4.908
		c-6.335-1.061-5.93-10.434,1.204-10.434c3.895,0,5.767,2.787,5.654,5.496l25.287-18.206c0.734-0.534,1.758-0.363,2.288,0.372
		C703.426,591.728,703.26,592.752,702.525,593.281z"/>
	<path fill="#F27668" d="M731.026,638.846c1.598-4.044,3.422-8.731,5.396-13.919c-13.424,8.706-29.386,13.819-46.544,13.819
		c-1.056,0-2.081-0.12-3.127-0.158l-6.912,4.976c-0.291,0.209-0.625,0.309-0.957,0.309c-0.509,0-1.01-0.237-1.331-0.68
		c-0.528-0.735-0.362-1.759,0.372-2.288l3.586-2.582c-13.122-1.276-25.337-5.583-36.067-12.112c0.919,2.246,2.17,4.443,3.813,6.544
		c1.69,0.633,2.725,1.944,3.131,3.427c0.369,0.357,0.769,0.703,1.161,1.053c17.422,7.571,41.473,9.031,63.204,9.34
		c4.147-1.49,8.052-3.388,11.555-5.722C729.273,640.207,730.155,639.529,731.026,638.846z"/>
	<path fill="#DD7C6C" d="M601.948,588.823c-0.291,0-0.551,0.043-0.819,0.073c0.451,3.456,0.841,6.94,1.135,10.44
		C609.491,599.033,609.408,588.823,601.948,588.823z"/>
	<path fill="#DD7C6C" d="M620.142,611.491c-1.923,0-3.351,0.685-4.298,1.702c3.156,1.924,6.274,3.934,9.365,6.008
		C626.815,616.08,625.144,611.491,620.142,611.491z"/>
	<path fill="#DD7C6C" d="M555.453,585.659c7.336,0,7.544-9.893,0.636-10.484c-0.915,3.395-1.986,6.723-3.292,9.939
		C553.546,585.452,554.423,585.659,555.453,585.659z"/>
	<path fill="#DD7C6C" d="M551.917,602.424c-4.832,0-6.565,4.298-5.222,7.405c2.08-0.894,4.206-1.763,6.44-2.572
		c1.356-0.491,2.748-0.937,4.135-1.387C556.589,603.967,554.812,602.424,551.917,602.424z"/>
	<path fill="#DD7C6C" d="M669.668,603.331c-7.134,0-7.539,9.373-1.204,10.434l6.858-4.938
		C675.435,606.118,673.563,603.331,669.668,603.331z"/>
	<path fill="#DD7C6C" d="M654.055,597.271c2.327-3.071,0.814-8.448-4.602-8.448c-7.56,0-7.573,10.541,0,10.541
		c1.312,0,2.38-0.332,3.237-0.856C653.241,598.171,653.692,597.75,654.055,597.271z"/>
	<path fill="#DD7C6C" d="M649.256,632.754c-0.677-0.253-1.446-0.408-2.33-0.408c-0.724,0-1.355,0.121-1.94,0.296
		c0.131,0.086,0.262,0.177,0.394,0.263c2.209,1.444,4.608,2.725,7.146,3.88c-0.031-0.205-0.085-0.403-0.14-0.603
		C651.981,634.698,650.946,633.387,649.256,632.754z"/>
	<path fill="#DD7C6C" d="M701,621.578c7.424,0,7.552-10.135,0.389-10.506l-5.979,4.305C694.908,618.283,696.767,621.578,701,621.578
		z"/>
	<path fill="#DD7C6C" d="M516.54,593.47c7.56,0,7.573-10.54,0-10.54C508.98,582.93,508.968,593.47,516.54,593.47z"/>
	<path fill="#EC605F" d="M601.129,588.896c-5.031-38.448-18.797-72.865-18.07-74.782c-10.429,27.513-20.319,58.681-22.419,90.726
		c13.282-3.856,27.611-5.288,40.476,0.459c0.536,0.239,1.056,0.519,1.588,0.768c-0.112-2.245-0.254-4.49-0.441-6.731
		C601.97,595.836,601.581,592.352,601.129,588.896z"/>
	<path fill="#0E2C47" d="M719.678,470.408c-0.004-0.005-0.008-0.009-0.012-0.012c-3.157-3.266-6.784-6.199-10.692-8.764
		c-21.314-13.986-55.239-18.005-67.086,5.908c-0.703,1.419,0.443,3.052,2.23,3.131l18.755,0.824
		c8.503-2.828,17.566-4.419,27.006-4.419c10.61,0,20.732,2.026,30.121,5.561C720.357,471.949,720.323,471.103,719.678,470.408z"/>
	<path fill="#0E2C47" d="M652.601,557.83c4.43,0.205,8.484,0.126,12.501,0.047l11.793-0.236c3.891-0.094,7.747-0.054,11.689,0.008
		c3.989-0.054,7.918,0.331,12.416,0.181c-3.21-3.017-7.137-5.276-11.319-6.529c-1.722-0.546-3.487-0.946-5.266-1.255
		c5.474-3.618,9.201-10.318,9.201-18.082c0-11.569-8.181-20.947-18.274-20.947s-18.275,9.378-18.275,20.947
		c0,8.279,4.226,15.369,10.309,18.77c-1.133,0.267-2.284,0.461-3.391,0.82C659.899,552.93,655.921,554.828,652.601,557.83z"/>
	<path fill="#0E2C47" d="M452.806,557.83c4.431,0.205,8.484,0.126,12.501,0.047l11.794-0.236c3.89-0.094,7.746-0.054,11.688,0.008
		c3.989-0.054,7.918,0.331,12.417,0.181c-3.211-3.017-7.137-5.276-11.319-6.529c-1.722-0.546-3.487-0.946-5.267-1.255
		c5.475-3.618,9.202-10.318,9.202-18.082c0-11.569-8.182-20.947-18.275-20.947c-10.093,0-18.274,9.378-18.274,20.947
		c0,8.279,4.226,15.369,10.309,18.77c-1.133,0.267-2.285,0.461-3.391,0.82C460.103,552.93,456.125,554.828,452.806,557.83z"/>
	<path fill="#CE4741" d="M700.609,590.621l-25.287,18.206l-6.858,4.938l-6.818,4.908c-0.733,0.529-0.901,1.553-0.372,2.288
		c0.321,0.443,0.822,0.68,1.331,0.68c0.331,0,0.666-0.099,0.957-0.308l38.963-28.052c0.734-0.529,0.901-1.553,0.372-2.288
		C702.367,590.258,701.343,590.087,700.609,590.621z"/>
	<path fill="#CE4741" d="M701.39,611.073l9.273-6.677c0.734-0.529,0.901-1.553,0.372-2.288c-0.53-0.732-1.554-0.906-2.287-0.372
		l-36.67,26.404c1.44,0.341,2.891,0.642,4.359,0.901l18.975-13.663L701.39,611.073z"/>
	<path fill="#CE4741" d="M677.923,640.905c-0.734,0.529-0.9,1.553-0.372,2.288c0.321,0.443,0.822,0.68,1.331,0.68
		c0.331,0,0.666-0.099,0.957-0.309l6.912-4.976c-1.754-0.064-3.516-0.098-5.242-0.266L677.923,640.905z"/>
	<path fill="#CE4741" d="M719.173,613.225c-0.53-0.735-1.553-0.903-2.288-0.372l-24.006,17.284c2.1-0.081,4.185-0.207,6.239-0.453
		l19.683-14.171C719.534,614.984,719.701,613.96,719.173,613.225z"/>
	<path fill="#F27668" d="M473.284,638.746c-4.681,0-9.241-0.478-13.72-1.203l-8.363,6.021c-0.291,0.209-0.624,0.309-0.957,0.309
		c-0.509,0-1.01-0.237-1.331-0.68c-0.528-0.735-0.361-1.759,0.372-2.288l5.767-4.152c-4.568-0.993-8.983-2.377-13.248-4.066
		c-0.196-0.038-0.379-0.095-0.55-0.202c-9.729-3.93-18.539-9.611-26.124-16.624c-0.66,8.991,4.106,18.125,14.408,24.991
		c14.721,9.811,36.384,12.144,54.44,7.039c8.849-4.134,16.485-9.156,23.973-14.398c0.894-1.073,1.71-2.167,2.41-3.286
		C499.119,635.622,486.575,638.746,473.284,638.746z"/>
	<path fill="#F27668" d="M499.668,594.112c-19.365-12.907-50.764-12.907-70.13,0c-5.503,3.668-9.386,7.993-11.762,12.588
		c4.501,4.643,9.591,8.684,15.126,12.09c0.039-0.036,0.062-0.084,0.108-0.116l38.963-28.052c0.735-0.534,1.756-0.363,2.288,0.372
		c0.528,0.735,0.361,1.759-0.373,2.288l-37.974,27.341c3.523,1.952,7.239,3.576,11.07,4.967l33.126-23.852
		c0.735-0.534,1.757-0.361,2.288,0.372c0.528,0.735,0.362,1.759-0.372,2.288l-31.281,22.524c4.502,1.374,9.176,2.338,13.982,2.869
		l23.521-16.935c0.737-0.531,1.758-0.363,2.288,0.372c0.529,0.735,0.362,1.759-0.372,2.288l-20.284,14.604
		c1.137,0.05,2.254,0.172,3.403,0.172c14.997,0,28.965-4.359,40.836-11.775C514.53,609.715,509.746,600.828,499.668,594.112z"/>
	<path fill="#CE4741" d="M474.26,590.993c-0.532-0.735-1.553-0.906-2.288-0.372l-38.963,28.052c-0.046,0.032-0.068,0.08-0.108,0.116
		c1,0.616,1.982,1.261,3.012,1.832l37.974-27.341C474.622,592.752,474.789,591.728,474.26,590.993z"/>
	<path fill="#CE4741" d="M482.398,602.107c-0.531-0.732-1.553-0.906-2.288-0.372l-33.126,23.852c1.25,0.454,2.483,0.941,3.761,1.331
		l31.281-22.524C482.761,603.866,482.926,602.842,482.398,602.107z"/>
	<path fill="#CE4741" d="M441.804,632.687c-0.181-0.072-0.37-0.129-0.55-0.202C441.425,632.592,441.608,632.649,441.804,632.687z"/>
	<path fill="#CE4741" d="M449.285,640.905c-0.733,0.529-0.9,1.553-0.372,2.288c0.321,0.443,0.822,0.68,1.331,0.68
		c0.332,0,0.666-0.099,0.957-0.309l8.363-6.021c-1.512-0.245-3.028-0.468-4.512-0.79L449.285,640.905z"/>
	<path fill="#CE4741" d="M490.536,613.225c-0.53-0.735-1.551-0.903-2.288-0.372l-23.521,16.935c1.697,0.188,3.426,0.253,5.154,0.328
		l20.284-14.604C490.899,614.984,491.065,613.96,490.536,613.225z"/>
	<path fill="#2A495D" d="M888.564,1032.005c-46.378-21.63-113.186-55.896-113.186-55.896c-2.465,1.536-4.882,2.976-7.318,4.454
		c-3.167,1.921-6.315,3.804-9.432,5.629l-49.163,129.974c14.398-3.788,28.557-8.157,42.467-13.058
		C801.045,1085.803,846.97,1061.745,888.564,1032.005z"/>
	<path fill="#2A495D" d="M375.795,968.765c-47.37,23.053-102.284,41.809-137.492,54.742c56.917,42.972,122.439,75.15,193.541,93.441
		L375.795,968.765z"/>
	<path fill="#2A495D" d="M615.398,1043.109c-12.117,2.163-23.624,3.435-34.532,3.922c-9.367,0.418-18.294,0.267-26.799-0.375
		c-9.931-0.749-19.285-2.16-28.083-4.112c-16.491,25.377-39.034,58.48-55.753,82.8c32.11,5.839,65.185,8.906,98.978,8.906
		c34.602,0,68.445-3.231,101.274-9.345C653.919,1100.809,631.752,1068.254,615.398,1043.109z"/>
	<path fill="#0E2C47" d="M517.232,462.139c-15.334-21.842-48.258-12.73-67.207,4.323c-1.988,1.789-3.825,3.709-5.56,5.697
		c9.024-3.231,18.699-5.084,28.819-5.084c7.257,0,14.268,1.004,21.003,2.707l21.215-4.211
		C517.256,465.223,518.141,463.435,517.232,462.139z"/>
	<path fill="#EFFAFD" d="M637.528,839.972c21.725-8.209,42.563-20.344,61.017-35.883c31.689-26.684,56.311-63.464,66.054-108.048
		c2.223-10.169,3.711-20.533,4.587-30.962c0.326-3.876,0.583-7.76,0.739-11.648c0.243-6.018-13.577-6.635-32.626-6.739
		c-2.48,6.17-4.141,10.141-4.47,10.92c-0.701,1.666-2.315,2.668-4.014,2.668c-0.563,0-1.136-0.11-1.688-0.341
		c-2.217-0.933-3.257-3.486-2.323-5.702c0.069-0.166,1.222-2.919,3.104-7.578c-3.62-0.011-7.345-0.03-11.156-0.085
		c-21.73-0.31-45.782-1.769-63.204-9.34c-0.342-0.149-0.684-0.296-1.021-0.449c-2.538-1.155-4.937-2.436-7.146-3.88
		c-0.133-0.086-0.263-0.177-0.394-0.263c-6.626-4.345-13.154-8.995-19.777-13.44c-3.091-2.074-6.209-4.084-9.365-6.008
		c-4.282-2.612-8.646-5.027-13.139-7.126c-0.532-0.249-1.052-0.529-1.588-0.768c-12.865-5.747-27.195-4.315-40.476-0.459
		c-1.134,0.329-2.255,0.668-3.371,1.03c-1.387,0.45-2.779,0.896-4.135,1.387c-2.234,0.809-4.36,1.678-6.44,2.572
		c-15.441,6.634-26.943,15.403-38.743,23.663c-7.488,5.243-15.124,10.264-23.973,14.398c-15.399,7.194-34.542,11.66-63.169,9.818
		c-0.341,0.633-0.798,1.207-1.476,1.576c-0.582,0.317-1.208,0.468-1.828,0.468c-1.355,0-2.67-0.724-3.365-1.999
		c-0.062-0.114-0.18-0.331-0.332-0.614c-6.408-0.609-13.21-1.479-20.573-2.719c0.526,0.162,1.585,4.813,2.722,10.559
		c1.779,8.998,3.748,20.702,4.164,22.216c6.991,25.436,17.172,49.865,30.598,71.733c7.867,12.813,16.969,24.454,27.001,34.845
		C505.46,843.226,574.745,863.693,637.528,839.972z M520.11,729.502c-1.778-2.467-1.218-5.905,1.25-7.681l73.898-53.205
		c2.468-1.781,5.906-1.22,7.681,1.25c1.777,2.467,1.217,5.906-1.251,7.682l-73.898,53.205c-0.973,0.702-2.098,1.038-3.211,1.038
		C522.87,731.79,521.185,730.997,520.11,729.502z M632.561,719.715l-73.898,53.208c-0.973,0.702-2.099,1.038-3.212,1.038
		c-1.71,0-3.395-0.793-4.471-2.288c-1.777-2.467-1.217-5.906,1.251-7.681l73.898-53.208c2.466-1.779,5.906-1.22,7.681,1.25
		C635.587,714.5,635.027,717.939,632.561,719.715z M618.374,690.949c1.778,2.467,1.218,5.906-1.25,7.681l-73.898,53.205
		c-0.973,0.702-2.098,1.038-3.212,1.038c-1.709,0-3.395-0.793-4.47-2.288c-1.777-2.467-1.217-5.905,1.25-7.681l73.898-53.205
		C613.16,687.921,616.6,688.48,618.374,690.949z M734.855,686.917c2.866-3.521,5.551-7.205,8.103-11.066
		c1.327-1.91,2.498-3.918,3.742-5.941l1.853-3.081c0.327-0.514,0.659-1.031,1.021-1.54c0.182-0.253,0.371-0.507,0.595-0.743
		c0.204-0.211,0.552-0.509,0.865-0.361c-0.559,0.171-0.522,0.919-0.675,1.441l-0.251,1.767l-0.567,3.58
		c-0.412,2.401-1.035,4.767-1.705,7.14c-1.421,4.713-3.417,9.27-5.809,13.598c-4.818,8.657-11.219,16.359-18.438,22.986
		c-7.231,6.635-15.298,12.222-23.814,16.817c-8.548,4.547-17.528,8.194-27.013,10.339c7.443-6.25,14.991-11.833,22.288-17.591
		c7.305-5.732,14.391-11.542,21.102-17.674C722.851,700.446,729.158,693.977,734.855,686.917z M520.788,646.285
		c7.988-2.502,15.034-7.004,22.494-11.77c2.503-1.6,5.003-3.196,7.534-4.711c17.025-10.192,36.944-10.542,53.281-0.936
		c5.272,3.103,10.153,6.77,14.872,10.316c1.667,1.25,3.332,2.503,5.015,3.731c2.335,1.701,4.977,3.392,6.924,2.924
		c2.267-0.542,4.532,0.87,5.065,3.133c0.532,2.266-0.871,4.532-3.135,5.066c-5.96,1.398-11.266-2.456-13.817-4.317
		c-1.717-1.25-3.416-2.528-5.114-3.802c-4.741-3.562-9.219-6.927-14.081-9.787c-13.641-8.023-30.343-7.687-44.683,0.9
		c-2.463,1.473-4.892,3.026-7.326,4.581c-7.597,4.854-15.454,9.873-24.511,12.711c-0.42,0.132-0.844,0.193-1.261,0.193
		c-1.792,0-3.454-1.154-4.018-2.954C517.331,649.343,518.568,646.981,520.788,646.285z M430.131,688.987
		c6.61,6.521,13.27,12.815,20.202,18.695c6.939,5.869,14.154,11.307,21.878,16.066c3.855,2.397,7.849,4.594,12.002,6.638
		c2.062,1.074,4.203,1.982,6.367,2.959l3.291,1.448c0.55,0.26,1.106,0.524,1.657,0.818c0.274,0.149,0.55,0.303,0.812,0.496
		c0.234,0.175,0.575,0.483,0.467,0.813c-0.24-0.534-0.978-0.402-1.515-0.488l-1.784-0.026l-3.623-0.109
		c-2.434-0.106-4.86-0.424-7.298-0.789c-4.855-0.813-9.628-2.217-14.225-4.042c-9.196-3.684-17.647-9.059-25.133-15.381
		c-7.496-6.334-14.059-13.63-19.695-21.496c-5.591-7.904-10.344-16.35-13.673-25.487
		C417.004,675.696,423.497,682.477,430.131,688.987z"/>
	<path fill="#606060" d="M527.791,730.752l73.898-53.205c2.467-1.776,3.027-5.215,1.251-7.682c-1.776-2.47-5.213-3.031-7.681-1.25
		l-73.898,53.205c-2.467,1.776-3.027,5.215-1.25,7.681c1.075,1.495,2.759,2.288,4.47,2.288
		C525.693,731.79,526.817,731.454,527.791,730.752z"/>
	<path fill="#606060" d="M610.693,689.699l-73.898,53.205c-2.466,1.776-3.026,5.215-1.25,7.681c1.075,1.495,2.76,2.288,4.47,2.288
		c1.114,0,2.238-0.336,3.212-1.038l73.898-53.205c2.467-1.776,3.027-5.214,1.25-7.681C616.6,688.48,613.16,687.921,610.693,689.699z
		"/>
	<path fill="#606060" d="M626.129,710.783l-73.898,53.208c-2.467,1.776-3.027,5.214-1.251,7.681c1.076,1.495,2.76,2.288,4.471,2.288
		c1.113,0,2.238-0.336,3.212-1.038l73.898-53.208c2.466-1.776,3.026-5.214,1.25-7.681
		C632.035,709.564,628.596,709.005,626.129,710.783z"/>
	<path fill="#A0A0A0" d="M522.045,654.517c0.417,0,0.841-0.061,1.261-0.193c9.057-2.838,16.914-7.858,24.511-12.711
		c2.434-1.556,4.863-3.108,7.326-4.581c14.34-8.587,31.042-8.923,44.683-0.9c4.862,2.861,9.34,6.225,14.081,9.787
		c1.698,1.275,3.397,2.552,5.114,3.802c2.551,1.861,7.857,5.715,13.817,4.317c2.264-0.534,3.667-2.8,3.135-5.066
		c-0.533-2.263-2.798-3.675-5.065-3.133c-1.948,0.468-4.59-1.222-6.924-2.924c-1.683-1.228-3.348-2.481-5.015-3.731
		c-4.719-3.546-9.6-7.213-14.872-10.316c-16.337-9.606-36.255-9.256-53.281,0.936c-2.531,1.514-5.032,3.111-7.534,4.711
		c-7.46,4.766-14.506,9.267-22.494,11.77c-2.22,0.697-3.456,3.059-2.76,5.278C518.591,653.363,520.253,654.517,522.045,654.517z"/>
	<path fill="#606060" d="M695.049,724.262c-7.297,5.757-14.845,11.34-22.288,17.591c9.485-2.145,18.465-5.792,27.013-10.339
		c8.516-4.595,16.583-10.182,23.814-16.817c7.219-6.627,13.62-14.329,18.438-22.986c2.393-4.329,4.389-8.886,5.809-13.598
		c0.67-2.373,1.293-4.739,1.705-7.14l0.567-3.58l0.251-1.767c0.153-0.522,0.116-1.27,0.675-1.441
		c-0.313-0.148-0.661,0.15-0.865,0.361c-0.225,0.235-0.413,0.489-0.595,0.743c-0.361,0.509-0.694,1.026-1.021,1.54l-1.853,3.081
		c-1.243,2.023-2.414,4.031-3.742,5.941c-2.552,3.861-5.237,7.545-8.103,11.066c-5.697,7.06-12.004,13.528-18.704,19.67
		C709.441,712.719,702.355,718.529,695.049,724.262z"/>
	<path fill="#606060" d="M423.535,694.59c5.635,7.866,12.199,15.162,19.695,21.496c7.487,6.322,15.937,11.698,25.133,15.381
		c4.597,1.825,9.37,3.229,14.225,4.042c2.438,0.365,4.864,0.683,7.298,0.789l3.623,0.109l1.784,0.026
		c0.536,0.085,1.275-0.046,1.515,0.488c0.108-0.33-0.233-0.637-0.467-0.813c-0.262-0.194-0.537-0.348-0.812-0.496
		c-0.551-0.294-1.107-0.558-1.657-0.818l-3.291-1.448c-2.165-0.977-4.305-1.885-6.367-2.959c-4.153-2.044-8.147-4.241-12.002-6.638
		c-7.724-4.759-14.939-10.197-21.878-16.066c-6.932-5.88-13.592-12.175-20.202-18.695c-6.635-6.51-13.127-13.291-20.269-19.884
		C413.191,678.24,417.944,686.687,423.535,694.59z"/>
	<path fill="#FFFFFF" d="M758.629,986.193l3.277-8.665l9.055-23.94l-69.279-64.94l-9.907,10.656l-98.563,106.008
		c0,2.738,9.288,17.966,22.187,37.797c16.355,25.145,38.522,57.701,55.084,81.796c13.165-2.452,26.166-5.366,38.983-8.739
		L758.629,986.193z"/>
	<path fill="#FFFFFF" d="M525.983,1042.544c12.705-19.553,21.82-34.521,21.82-37.233l-88.142-94.8l-20.328-21.864l-69.279,64.94
		l5.741,15.178l56.049,148.183c7.179,1.847,14.43,3.515,21.72,5.076c5.528,1.184,11.078,2.304,16.666,3.32
		C486.949,1101.025,509.492,1067.921,525.983,1042.544z"/>
	<path fill="#0E2C47" d="M372.024,538.826c0.569-0.312,1.191-0.543,1.879-0.57c2.114,0.05,3.786,1.803,3.738,3.918
		c-0.004,0.155,0.01,0.329,0.009,0.486c3.153,1.504,6.605,2.15,10.238,1.578c0.982-9.734,3.673-18.949,7.643-27.455
		c-1.1-5.556-2.94-11.152-4.509-16.438c-1.259-4.244-2.53-8.684-3.137-13.165c-0.42-3.111-0.518-6.241-0.037-9.343
		c0.013-0.09,0.014-0.181,0.029-0.27c0.621-3.747,1.472-7.338,2.259-10.926c1.11-5.055,2.094-10.103,2.129-15.569
		c0.038-5.788,0.011-11.489,6.275-14.067c4.737-1.949,10.388-2.067,15.351-3.205c7.254-1.664,14.184-4.32,20.577-8.154
		c29.437-17.654,63.826-28.546,87.462-53.437c17.886-18.835,28.034-38.863,56.416-42.218c15.835-1.872,31.806,0.743,47.72,1.756
		c12.965,0.825,26.188,0.452,38.945-1.868c0.185,0.17,0.392,0.34,0.576,0.511c23.009,21.485,39.558,47.493,55.793,73.457
		c21.744,34.775,44.051,72.671,45.696,111.779c0.237,0.488,0.479,0.972,0.707,1.465c0.285-3.003,0.416-5.796,0.371-8.332
		c-0.044-2.404,1.87-4.389,4.273-4.433c0.028,0,0.055,0,0.081,0c2.368,0,4.309,1.897,4.352,4.273
		c0.131,7.238-1.052,16.292-3.077,26.305c0.31,1.445,0.513,2.924,0.749,4.395c8.934-1.046,17.161-5.931,23.345-12.687
		c4.536-4.957,7.987-10.886,9.769-17.027c5.009-17.275,0.8-35.498-2.005-53.189c-4.132-26.06-5.155-52.534-3.044-78.797
		c0.777-9.666,1.936-19.654-1.445-28.836c-2.293-6.224-6.538-11.662-10.864-16.895c-17.731-21.446-37.872-41.201-59.968-58.901
		c6.177-23.276,2.169-49.331-13.907-68.624c-14.224-17.069-35.17-26.986-56.034-34.628c-31.265-11.451-63.963-18.985-97.087-22.369
		c-17.612-1.799-35.974-2.33-52.412,4.255c-32.969,13.208-51.557,45.431-72.762,71.897c-21.814,27.226-56.081,34.672-78.554,60.038
		c-9.714,10.965-15.111,25.089-18.807,39.265c-6.792,26.051-8.346,53.422-4.807,80.1c3.622,27.299,17.559,49.985,23.191,76.137
		c2.846,13.214,0.058,27.096,2.432,40.404c0.547,3.063,1.572,6.147,2.959,9.063C366.399,532.437,368.958,536.036,372.024,538.826z"
		/>
	<path fill="#FFFDFD" d="M420.865,654.093c-0.438-0.802-43.497-80.289-43.215-111.433c0.001-0.157-0.013-0.332-0.009-0.486
		c0.049-2.115-1.623-3.868-3.738-3.918c-0.689,0.027-1.31,0.259-1.879,0.57c-1.162,0.635-2.006,1.749-2.038,3.166
		c-0.746,31.721,39.447,107.048,43.821,115.148c0.152,0.283,0.27,0.5,0.332,0.614c0.695,1.275,2.01,1.999,3.365,1.999
		c0.62,0,1.247-0.151,1.828-0.468c0.678-0.369,1.136-0.944,1.476-1.576C421.4,656.609,421.507,655.272,420.865,654.093z"/>
	<path fill="#FFFDFD" d="M759.384,586.694c2.414-7.294,4.744-14.706,6.882-22.029c0.59-3.844,0.991-7.748,0.991-11.754
		c0-6.325-0.847-12.443-2.286-18.331c-4.833,23.089-14.371,51.8-22.956,75.34C749.176,603.366,755.083,595.506,759.384,586.694z"/>
	<path fill="#FFFDFD" d="M736.422,624.927c-1.974,5.188-3.799,9.875-5.396,13.919c-1.174,2.971-2.233,5.621-3.118,7.812
		c-1.882,4.658-3.035,7.412-3.104,7.578c-0.934,2.216,0.107,4.768,2.323,5.702c0.552,0.231,1.124,0.341,1.688,0.341
		c1.699,0,3.313-1.002,4.014-2.668c0.328-0.779,1.99-4.75,4.47-10.92c3.144-7.825,7.611-19.21,12.437-32.377
		C745.668,618.279,741.207,621.825,736.422,624.927z"/>
	<path fill="#FFFDFD" d="M776.857,508.599c-0.042-2.376-1.984-4.273-4.352-4.273c-0.026,0-0.053,0-0.081,0
		c-2.403,0.044-4.317,2.029-4.273,4.433c0.046,2.536-0.086,5.329-0.371,8.332c2.607,5.646,4.663,11.59,5.999,17.814
		C775.805,524.891,776.989,515.837,776.857,508.599z"/>
	<path fill="#EFFAFD" d="M415.13,615.861c7.585,7.013,16.395,12.693,26.124,16.624c0.18,0.073,0.369,0.13,0.55,0.202
		c4.266,1.69,8.68,3.074,13.248,4.066c1.484,0.323,3,0.546,4.512,0.79c4.479,0.724,9.039,1.203,13.72,1.203
		c13.291,0,25.835-3.124,37.077-8.54c19.157-9.228,34.389-25.3,42.435-45.093c1.307-3.216,2.377-6.544,3.292-9.939
		c1.915-7.114,3.032-14.553,3.032-22.264c0-16.918-4.986-32.664-13.471-45.972c8.918-7.462,39.912-28.991,71.899-0.057
		c-8.507,13.319-13.506,29.086-13.506,46.029c0,31.054,16.632,58.226,41.401,73.299c10.729,6.529,22.945,10.836,36.067,12.112
		c1.726,0.168,3.488,0.202,5.242,0.266c1.046,0.038,2.071,0.158,3.127,0.158c17.158,0,33.119-5.113,46.544-13.819
		c4.784-3.102,9.246-6.648,13.313-10.612c15.999-15.6,25.979-37.345,25.979-61.404c0-4.643-0.472-9.167-1.185-13.612
		c-0.236-1.471-0.439-2.95-0.749-4.395c-1.336-6.223-3.392-12.168-5.999-17.814c-0.228-0.493-0.47-0.977-0.707-1.465
		c-9.566-19.718-26.414-35.209-47.075-42.989c-9.389-3.536-19.51-5.561-30.121-5.561c-9.44,0-18.503,1.591-27.006,4.419
		c-16.115,5.361-30.096,15.365-40.394,28.436c-35.563-31.461-70.618-8.697-81.69,0.14c-11.561-14.736-27.81-25.561-46.501-30.288
		c-6.735-1.704-13.746-2.707-21.003-2.707c-10.121,0-19.795,1.852-28.819,5.084c-21.658,7.756-39.282,23.938-48.934,44.624
		c-3.97,8.506-6.661,17.721-7.643,27.455c-0.288,2.853-0.44,5.746-0.44,8.674C387.448,577.794,398.156,600.169,415.13,615.861z
		 M689.879,475.533c36.341,0,66.827,25.216,75.093,59.047c1.439,5.888,2.286,12.006,2.286,18.331c0,4.006-0.401,7.911-0.991,11.754
		c-1.195,7.788-3.54,15.183-6.882,22.029c-4.301,8.812-10.209,16.672-17.369,23.225c-0.137,0.126-0.274,0.251-0.413,0.376
		c-11.562,10.432-26.237,17.442-42.484,19.388c-2.054,0.246-4.139,0.372-6.239,0.453c-1.003,0.039-1.988,0.152-3,0.152
		c-4.593,0-9.068-0.477-13.443-1.248c-1.468-0.259-2.919-0.56-4.359-0.901c-10.384-2.458-19.94-7.009-28.245-13.189
		c-18.968-14.116-31.332-36.633-31.332-62.04C612.5,510.245,647.211,475.533,689.879,475.533z M473.284,475.533
		c42.667,0,77.379,34.712,77.379,77.378c0,27.669-14.645,51.922-36.543,65.603c-11.87,7.416-25.839,11.775-40.836,11.775
		c-1.149,0-2.266-0.123-3.403-0.172c-1.728-0.076-3.457-0.141-5.154-0.328c-4.805-0.531-9.48-1.495-13.982-2.869
		c-1.279-0.39-2.512-0.877-3.761-1.331c-3.831-1.391-7.547-3.015-11.07-4.967c-1.03-0.571-2.012-1.216-3.012-1.832
		c-5.535-3.406-10.625-7.447-15.126-12.09c-13.508-13.937-21.87-32.892-21.87-53.788
		C395.906,510.245,430.618,475.533,473.284,475.533z"/>
</g>
</svg>
