<?xml version="1.0" encoding="utf-8"?>
<!-- Generator: Adobe Illustrator 23.1.0, SVG Export Plug-In . SVG Version: 6.00 Build 0)  -->
<svg version="1.1" id="Layer_1" xmlns="http://www.w3.org/2000/svg" xmlns:xlink="http://www.w3.org/1999/xlink" x="0px" y="0px"
	 viewBox="0 0 1200 1200" enable-background="new 0 0 1200 1200" xml:space="preserve">
<g>
	<path fill="#F8AB9A" d="M456.408,549.919c0.455,9.139-2.102,16.571-1.647,25.71c0.164,3.292-1.005,8.471,0.567,11.484
		c1.935,3.708,10.202,6.414,14.552,8.183s9.157,2.605,13.941,3.255c1.287,0.175,2.61,0.337,3.89,0.112
		c1.279-0.225,2.525-0.919,2.924-1.96c0.95-2.477-2.703-3.965-4.447-5.347c-2.329-1.847-4.37-3.947-6.075-6.221
		c-3.41-4.549-5.487-9.814-5.857-15.196c-0.032-0.461-0.014-0.997,0.42-1.286c0.44-0.293,1.122-0.167,1.529,0.152
		c1.05,0.822,1.251,2.367,1.742,3.43c0.713,1.543,1.271,3.132,1.829,4.718c1.107,3.141,2.215,6.359,4.448,9.088
		c1.033,1.263,2.613,2.501,4.432,2.281c1.399-0.169,2.482-1.199,2.92-2.324c0.438-1.125,0.352-2.337,0.233-3.512
		c-0.773-7.622-2.75-15.151-5.863-22.329c-0.739-1.703-1.546-3.4-1.906-5.189c-0.378-1.875-0.256-3.81-0.721-5.671
		c-0.773-3.093-3.118-5.791-3.805-8.899c-0.214-0.967-0.271-1.982-0.792-2.861c-0.708-1.194-2.166-1.948-3.648-2.441
		c-4.806-1.6-11.056-0.704-14.007,2.881"/>
	<path fill="#562979" d="M525.884,315.712c-3.088,11.768-8.858,22.61-13.855,33.713c-25.482,56.566-30.784,120.393-26.216,182.322
		c0.086,1.155,0.172,2.3,0.268,3.455c0.29,3.536,0.583,7.206-0.667,10.54c-1.909,5.078-7.155,8.302-12.488,9.306
		c-3.253,0.611-6.958,0.229-10.574-0.349c-4.212-0.679-7.605-3.76-8.757-7.862c-0.864-3.064-1.615-6.15-2.285-9.248
		c-5.05-23.278-5.156-47.603-5.202-71.53c-0.034-16.576-0.069-33.213,2.08-49.65c1.462-11.201,3.931-22.24,6.637-33.201
		c10.793-43.636,22.635-81.081,40.778-121.434c3.161-7.031,10.015-11.833,17.721-12.067c3.356-0.102,6.355,0.697,8.101,2.989
		c4.297,5.633,5.507,12.978,6.271,20.027C529.259,287.065,529.54,301.762,525.884,315.712z"/>
	<path fill="#562979" d="M667.877,1104.255c1.523,12.056,3.045,24.112,4.568,36.168c0.08,0.631,0.178,1.303,0.601,1.777
		c0.426,0.477,1.09,0.649,1.713,0.795c18.068,4.231,36.576,6.578,55.128,6.991c1.667,0.037,3.387,0.049,4.93-0.583
		c1.543-0.632,2.876-2.077,2.853-3.744c-0.042-3.058-3.921-4.231-6.936-4.744c-7.753-1.319-15.27-4.011-22.098-7.913
		c-2.04-1.166-4.076-2.493-5.397-4.436c-1.559-2.293-1.939-5.156-2.418-7.886c-1.065-6.065-3.083-12.41-7.914-16.228
		c-5.341-4.221-12.739-4.34-19.545-4.268"/>
	<path fill="#562979" d="M488.442,1131.819c-2.166-0.304-4.401-0.675-6.227-1.877c-1.826-1.203-3.135-3.469-2.554-5.578
		c13.98-2.761,27.959-5.521,41.939-8.282c13.185-2.604,5.693-12.605,10.833-20.651c3.517-5.505,17.239-8.674,20.787-5.181
		c5.981,5.887,0.385,20.122-0.057,28.286c-0.316,5.838-0.2,9.871-6.214,11.946c-5.392,1.86-12.151,1.957-17.802,2.438
		C515.595,1134.073,501.912,1133.708,488.442,1131.819z"/>
	<path fill="#10113D" d="M526.437,111.819c-0.289-0.841-1.046-1.422-1.788-1.914c-2.059-1.364-4.308-2.44-6.662-3.189
		c-0.876-0.278-1.991-0.447-2.575,0.262l-7.636,2.534c-1.847,2.176-2.15,5.273-1.896,8.116c0.362,4.054,1.857,8.243,5.097,10.708
		c3.24,2.464,8.469,2.501,11.001-0.687c0.862-1.085,1.346-2.416,1.784-3.731c1.074-3.225,1.953-6.516,2.632-9.847
		C526.544,113.327,526.683,112.538,526.437,111.819z"/>
	<path fill="#10113D" d="M627.148,156.541c-1.829-4.398-6.457-7.475-11.22-7.46l-2.573-2.348
		c-5.707-0.446-11.986-0.736-16.553,2.714c-2.172,1.641-3.714,3.979-4.954,6.402c-1.113,2.175-2.029,4.5-2.21,6.936
		c-0.341,4.601,1.931,8.926,3.549,13.247c1.309,3.496,2.522,7.52,5.844,9.224c2.302,1.18,5.059,0.906,7.605,0.449
		c1.342-0.241,2.693-0.53,3.917-1.13c2.36-1.158,4.1-3.5,4.529-6.093c0.428-2.594-0.468-5.371-2.331-7.225
		c3.483-0.131,6.957-1.043,9.964-2.804c1.936-1.134,3.724-2.685,4.616-4.745C628.307,161.454,628.091,158.808,627.148,156.541z"/>
	<path fill="#10113D" d="M483.701,880.789c0.645,71.06,5.558,144.915,39.922,207.111c5.384,9.755,15.088,20.524,25.57,16.767
		c6.295-2.252,9.643-8.946,12.386-15.037c6.275-13.973,12.56-27.976,18.63-42.061c9.12-21.189,17.75-42.573,25.12-64.366
		c0.031,0.122,0.061,0.235,0.102,0.358c5.364,19.286,11.905,38.192,20.043,56.566c9.858,22.244,21.977,43.484,36.124,63.281
		c4.668,6.521,10.195,13.328,18.016,15.099c7.954,1.802,16.307-2.303,21.773-8.353c5.466-6.039,8.619-13.778,11.649-21.342
		c13.942-34.752,27.945-70.395,29.44-107.809c1.003-25.458-3.839-50.731-8.752-75.728
		c-27.812-141.374-58.828-282.993-63.731-426.998c-17.576-4.534-47.804-21.26-65.901-19.827c-4.494,0.358-9.008,1.157-13.399,2.406
		c-2.508-3.225-5.579-6.07-9.346-7.606c-3.429-1.402-7.206-1.638-10.902-1.853c-12.662-0.727-25.325-1.453-37.987-2.18
		l-26.922,25.54C494.009,609.865,482.473,745.199,483.701,880.789z"/>
	<path fill="#F8AB9A" d="M743.644,569.801c-0.262,9.146,2.453,16.523,2.191,25.669c-0.094,3.294,1.184,8.448-0.324,11.493
		c-1.856,3.748-10.064,6.628-14.375,8.49c-4.311,1.861-9.1,2.799-13.868,3.55c-1.283,0.202-2.603,0.392-3.887,0.194
		c-1.284-0.198-2.544-0.865-2.965-1.898c-1.002-2.457,2.618-4.021,4.333-5.44c2.29-1.896,4.285-4.038,5.942-6.349
		c3.313-4.621,5.278-9.928,5.534-15.317c0.022-0.462-0.008-0.997-0.447-1.277c-0.446-0.284-1.125-0.143-1.526,0.184
		c-1.033,0.844-1.201,2.393-1.669,3.466c-0.68,1.558-1.204,3.158-1.729,4.756c-1.04,3.164-2.08,6.405-4.254,9.18
		c-1.006,1.284-2.559,2.556-4.383,2.374c-1.402-0.139-2.506-1.146-2.968-2.262c-0.462-1.115-0.402-2.329-0.307-3.506
		c0.611-7.637,2.428-15.206,5.389-22.449c0.702-1.718,1.473-3.432,1.796-5.228c0.338-1.883,0.175-3.815,0.601-5.685
		c0.708-3.109,2.994-5.856,3.615-8.978c0.193-0.971,0.229-1.987,0.732-2.877c0.683-1.209,2.124-1.993,3.595-2.518
		c4.771-1.702,11.039-0.939,14.065,2.583"/>
	<path fill="#562979" d="M502.075,333.894c2.979,56.975-1.259,96.723,0.502,150.351c0.205,6.357,7.943,9.213,15.856,10.912
		c7.749,1.658,15.795,2.15,23.799,2.529c38.898,1.873,77.97,1.433,116.786-1.29c5.384-0.379,11.332-1.034,14.812-4.381
		c1.986-1.914,2.825-4.422,3.501-6.848c4.34-15.723,3.972-31.999,4.494-48.101c0.164-5.118,0.42-10.236,0.757-15.354
		c1.894-29.368,6.234-58.633,9.766-87.93c1.863-15.58,3.501-31.17,4.422-46.79c0.737-12.652-5.118-22.663-15.774-30.617
		c-2.15-1.597-4.483-3.112-7.012-4.555c-17.176-9.786-37.178-20.606-56.791-28.857c-4.678-1.965-4.104,4.107-8.689,2.48
		c-12.56-4.453-31.977-4.054-46.246,0c-18.824,5.364-37.498,8.627-49.884,17.533C491.204,258.217,500.857,310.596,502.075,333.894z"
		/>
	<path fill="#2E0940" d="M552.13,252.536c0.727,1.812,1.648,3.562,2.907,5.047c2.007,2.365,4.77,3.941,7.473,5.456
		c2.61,1.484,5.262,2.978,8.158,3.798c5.671,1.617,11.731,0.532,17.525-0.563c3.705-0.696,7.462-1.412,10.84-3.091
		c2.467-1.218,4.658-2.927,6.695-4.78c5.691-5.18,10.308-11.792,12.11-19.285c1.003-4.186,1.392-11.157-0.645-16.153
		c-4.678-1.965-9.335-3.777-13.921-5.405c-12.56-4.453-27.126-3.255-41.396,0.798c-0.42,0.307-0.829,0.635-1.239,0.963
		C551.179,227.078,547.565,241.184,552.13,252.536z"/>
	<path fill="#F8AB9A" d="M568.283,244.135c3.22,3.064,8.295,2.757,12.652,1.937c8.766-1.638,17.53-4.657,24.252-10.52
		c3.046-2.646,5.672-5.938,6.779-9.817c2.214-7.696-1.848-15.622-5.208-22.886c-5.385-11.628-9.257-23.954-11.504-36.562
		c-0.793-4.444-1.083-8.111-6.419-7.75c-5.274,0.361-9.821,3.215-13.452,6.83c-3.687,3.656-7.362,7.32-11.048,10.975
		c-0.934,0.934-1.912,1.917-2.302,3.186c-0.335,1.104-0.198,2.296-0.059,3.445c0.158,1.322,0.315,2.635,0.463,3.959
		c1.154,10.154,1.934,20.37,2.341,30.587c0.196,4.969,0.299,9.944,0.32,14.922C565.117,236.599,565.272,241.264,568.283,244.135z"/>
	<path fill="#AA414C" d="M564.778,217.519c5.661-1.09,10.921-4.146,14.998-8.261c4.817-4.84,8.087-11.062,10.166-17.573
		c2.446-7.672,3.285-16.021,1.238-23.816l-4.732,1.122c-0.653-0.244-1.356,0.143-1.935,0.53
		c-7.782,5.231-13.981,12.679-22.075,17.411C563.591,197.087,564.372,207.303,564.778,217.519z"/>
	<path fill="#F8AB9A" d="M513.031,152.976c0.89,6.513,2.229,12.979,2.84,19.521c0.592,6.338,1.538,12.855,4.703,18.485
		c5.121,9.105,15.167,13.323,25.27,13.589c12.82,0.337,26.013-2.205,34.883-12.034c8.051-8.922,11.953-21.066,13.006-32.86
		c0.596-6.671,0.286-13.417-0.815-20.021c-5.218-31.286-27.312-53.673-49.342-49.999c-10.552,1.76-18.841,9.323-23.949,18.416
		c-6.268,11.157-8.306,24.439-7.428,37.091C512.38,147.775,512.676,150.378,513.031,152.976z"/>
	<path fill="#10113D" d="M567.33,136.202c-2.619-9.671-0.731-19.958,1.792-29.655c-6.101,5.917-14.258,9.673-22.721,10.463
		c-2.892,0.27-5.966,0.163-8.467-1.314c-2.501-1.477-4.17-4.679-3.095-7.377c-5.356,3.736-11.786,5.674-18.243,6.643
		c-6.592,0.989-13.422,1.009-19.821-0.854c-6.399-1.864-12.351-5.739-15.925-11.365c-7.009-11.032-3.14-26.502,6.041-35.804
		s22.371-13.485,35.287-15.485c18.224-2.822,37.418-1.832,54.281,5.633s31.09,21.974,35.611,39.853
		c5.63-1.812,12.011,0.516,16.207,4.685s6.504,9.888,7.891,15.638c2.867,11.886,1.738,25.663-6.692,34.519
		c-5.078,5.335-12.371,8.317-19.723,8.764c-7.807,0.475-14.498-1.935-21.406-5.176c-2.759-1.294-5.834-1.416-8.587-2.891
		c-2.908-1.559-5.422-3.808-7.455-6.395C570.013,143.169,568.299,139.781,567.33,136.202z"/>
	
		<ellipse transform="matrix(0.9864 -0.1645 0.1645 0.9864 -16.7549 99.9115)" fill="#F8AB9A" cx="594.828" cy="151.112" rx="11.13" ry="14.707"/>
	
		<path fill="none" stroke="#333333" stroke-width="1.6308" stroke-linecap="round" stroke-linejoin="round" stroke-miterlimit="10" d="
		M549.528,134.445c-2.346-1.44-5.234-1.972-7.938-1.461"/>
	
		<path fill="none" stroke="#333333" stroke-width="1.5027" stroke-linecap="round" stroke-linejoin="round" stroke-miterlimit="10" d="
		M521.724,134.174c-2.416,0.035-4.677,1.091-6.215,2.904"/>
	<path fill="#2E0940" d="M669.804,314.684c4.309,18.691,1.5,37.556,5.237,56.37c2.774,13.932,0.755,19.171,3.99,33
		c1.371,5.845,2.528,11.741,3.552,17.658c1.894-29.368,6.234-58.633,9.766-87.93c-0.266-1.709-0.553-3.419-0.839-5.118
		c-1.198-6.971-2.641-14.003-5.896-20.268c-5.016-9.622,4.926-10.415-3.949-16.66l-5.699-0.154
		C675.135,298.716,668.186,307.682,669.804,314.684z"/>
	<path fill="#562979" d="M670.688,337.088c3.337,11.7,9.336,22.417,14.567,33.411c26.676,56.013,33.329,119.713,30.074,181.725
		c-0.061,1.157-0.123,2.303-0.194,3.46c-0.215,3.542-0.43,7.217,0.89,10.523c2.017,5.036,7.329,8.148,12.683,9.039
		c3.266,0.542,6.961,0.082,10.564-0.573c4.197-0.768,7.524-3.921,8.588-8.046c0.798-3.081,1.484-6.183,2.088-9.295
		c4.555-23.38,4.146-47.701,3.685-71.624c-0.317-16.573-0.635-33.207-3.132-49.595c-1.699-11.168-4.401-22.152-7.339-33.053
		c-12.458-46.145-29.378-91.073-50.455-133.973c-6.183-3.48-14.72-0.829-18.896,4.903c-4.177,5.722-5.231,13.092-5.845,20.155
		C666.706,308.518,666.736,323.218,670.688,337.088z"/>
	<path fill="#1A434D" d="M577.166,887.249c0.661,11.555,1.616,23.094,2.928,34.594c3.107,27.234,6.976,53.957,5.757,81.494
		c-0.013,0.277-0.025,0.553-0.038,0.83c-0.133,2.798-0.314,5.594-0.548,8.386c-0.993,11.761-2.927,23.411-5.057,35.018
		c9.12-21.189,17.75-42.573,25.12-64.366c0.031,0.122,0.061,0.235,0.102,0.358c-5.65-33.002-12.345-65.809-20.063-98.381
		c-1.126-4.729-5.306-42.398-9.421-44.978c1.388,0.87,0.119,16.815,0.167,19.24c0.138,6.953,0.362,13.904,0.69,20.851
		C576.913,882.613,577.033,884.931,577.166,887.249z"/>
	<g>
		<path fill="#F8AB9A" d="M657.28,511.018c-0.22,7.677-0.44,15.354-0.661,23.032"/>
	</g>
	<g>
		<path fill="#F8AB9A" d="M643.425,512.868c-0.52,7.27-1.04,14.54-1.56,21.81"/>
	</g>
	<g>
		<path fill="#F8AB9A" d="M626.886,516.004c0.29,6.434,0.073,12.89-0.649,19.289"/>
	</g>
	<g>
		<path fill="#F8AB9A" d="M607.622,519.737c0,4.565,0,9.13,0,13.695"/>
	</g>
	<g>
		<path fill="#F8AB9A" d="M590.814,519.737c0,4.773,0,9.545,0,14.318"/>
	</g>
	<g>
		<path fill="#F8AB9A" d="M573.384,518.492c0,4.773,0,9.545,0,14.318"/>
	</g>
	<g>
		<path fill="#F8AB9A" d="M555.27,519.728c-0.634,4.325-0.811,8.717-0.526,13.079"/>
	</g>
	<g>
		<path fill="#F8AB9A" d="M536.656,516.002c0,4.565,0,9.13,0,13.695"/>
	</g>
	<g>
		<path fill="#F8AB9A" d="M521.236,513.52c-0.272,4.976-0.545,9.953-0.817,14.929"/>
	</g>
	<g>
		<path fill="#F8AB9A" d="M509.336,511.023c-0.047,4.175-0.532,8.346-1.444,12.421"/>
	</g>
	<path fill="#1A434D" d="M589.088,901.249c-6.496-20.27-22.375-127.413-23.828-153.476c-1.077-19.331-2.477-38.719-6.203-57.719
		c-4.125-21.038-11.871-41.361-22.793-59.809L589.088,901.249z"/>
	<g>
		<g>
			<g>
				<path fill="#318633" d="M533.26,165.998c0.015,0.321-1.025,0.659-3.295,0.972c-0.567,0.078-1.212,0.155-1.936,0.23
					c-0.723,0.062-1.504,0.186-2.544,0.148c-0.513-0.026-1.095-0.1-1.713-0.354c-0.611-0.244-1.247-0.718-1.659-1.34
					c-0.838-1.228-0.93-2.816-0.607-4.188c0.326-1.382,0.805-2.383,1.079-3.333c0.3-0.957,0.521-1.856,0.69-2.687
					c0.336-1.663,0.466-3.053,0.549-4.154c0.148-2.205,0.18-3.281,0.518-3.336c0.292-0.053,0.845,0.942,1.125,3.302
					c0.129,1.177,0.167,2.696-0.079,4.539c-0.124,0.921-0.32,1.921-0.62,2.986c-0.29,1.084-0.765,2.172-0.993,3.187
					c-0.241,1.004-0.113,1.871,0.23,2.418c0.307,0.511,0.883,0.735,1.643,0.824c0.734,0.083,1.565,0.044,2.293,0.062
					c0.728,0.009,1.376,0.027,1.948,0.054C532.179,165.435,533.246,165.677,533.26,165.998z"/>
			</g>
		</g>
	</g>
	<path fill="#2E0940" d="M605.192,402.382c6.382,3.997,12.804,8.299,17.214,14.403c-7.414-0.689-14.166-4.384-20.674-8.001
		c-9.999-5.557-19.999-11.115-29.998-16.672c-5.787-3.216-11.868-6.517-18.487-6.691c-0.802-0.021-1.75,0.086-2.146,0.783
		c-0.396,0.696-0.004,1.566,0.428,2.24c1.695,2.64,4.047,4.779,6.282,6.982c9.214,9.084,16.833,19.78,22.408,31.456
		c-9.346-2.47-15.901-10.622-21.773-18.301c-7.716-10.093-15.433-20.186-23.149-30.279c-3.057-3.998-6.136-8.032-8.324-12.565
		c-0.679-1.407,6.567,0.338,7.07,0.527c3.196,1.2,6.407,2.828,9.584,4.164c7.112,2.991,14.144,6.173,21.085,9.542
		C578.595,386.706,592.115,394.191,605.192,402.382z"/>
	<path fill="#2E0940" d="M716.024,566.207c2.017,5.036,7.329,8.148,12.683,9.039c3.266,0.542,6.961,0.082,10.564-0.573
		c4.197-0.768,7.524-3.921,8.588-8.046c0.798-3.081,1.484-6.183,2.088-9.295c-0.675,0.327-1.32,0.604-1.894,0.747
		c-2.354,0.614-4.77,0.952-7.206,0.993c-8.752,0.164-17.105-3.347-25.192-6.715c-0.102-0.041-0.215-0.082-0.327-0.133
		c-0.061,1.157-0.123,2.303-0.194,3.46C714.919,559.226,714.704,562.901,716.024,566.207z"/>
	<path fill="#2E0940" d="M483.946,545.741c-1.909,5.078-7.155,8.302-12.488,9.306c-3.253,0.611-6.958,0.229-10.574-0.349
		c-4.212-0.679-7.605-3.76-8.757-7.862c-0.864-3.064-1.615-6.15-2.285-9.248c0.682,0.313,1.333,0.576,1.909,0.707
		c2.367,0.564,4.789,0.85,7.226,0.84c8.754-0.022,17.03-3.709,25.044-7.247c0.101-0.043,0.213-0.087,0.324-0.14
		c0.086,1.155,0.172,2.3,0.268,3.455C484.903,538.738,485.196,542.408,483.946,545.741z"/>
	<g>
		<path fill="#853740" d="M532.834,192.705c-1.042-0.041-2.08-0.433-2.865-1.141c-0.794-0.694-1.397-1.592-1.84-2.552
			c-0.894-1.928-1.33-4.039-1.551-6.165c-0.183-2.13-0.194-4.258,0.151-6.436c0.209-1.082,0.454-2.192,1.099-3.291
			c0.333-0.537,0.788-1.098,1.479-1.487c0.351-0.178,0.742-0.325,1.14-0.358c0.396-0.045,0.768-0.033,1.204,0.082
			c0.825,0.255,1.343,0.76,1.753,1.191c0.397,0.438,0.744,0.874,1.067,1.341c0.648,0.928,1.123,1.938,1.546,2.939
			c0.413,1.007,0.718,2.036,1.013,3.048c0.281,0.999,0.566,2.054,0.729,3.123c0.173,1.061,0.241,2.134,0.226,3.202
			c-0.014,1.066-0.117,2.139-0.433,3.161c-0.297,1.018-0.861,1.995-1.73,2.603C534.958,192.591,533.868,192.743,532.834,192.705z
			 M532.834,192.705c1.037,0.011,2.112-0.174,2.937-0.809c0.827-0.632,1.264-1.626,1.479-2.612c0.373-2.02,0.001-4.103-0.579-6.037
			c-0.291-0.969-0.7-1.885-1.112-2.853c-0.397-0.955-0.834-1.878-1.284-2.77c-0.452-0.891-0.971-1.726-1.543-2.492
			c-0.54-0.748-1.314-1.586-1.7-1.646c-0.065-0.024-0.226-0.041-0.346-0.028c-0.126-0.001-0.229,0.048-0.347,0.091
			c-0.227,0.117-0.481,0.367-0.702,0.707c-0.454,0.682-0.797,1.61-1.042,2.556c-0.503,1.908-0.786,3.971-0.91,6.008
			c-0.09,2.031,0.046,4.125,0.731,6.072c0.362,0.956,0.853,1.895,1.611,2.609C530.777,192.217,531.792,192.635,532.834,192.705z"/>
	</g>
	<g>
		<path fill="#FFF6DF" d="M517.886,184.273c1.926,4.471,4.037,8.921,7.047,12.748c3.011,3.829,7.015,7.03,11.713,8.31
			c5.833,1.589,11.913,0.091,17.587-2.28c0,0,0.002,0.001,0.004-0.001c1.493-0.624,2.958-1.31,4.383-2.015
			c2.607-1.289,5.252-2.715,7.082-4.976c1.643-2.028,2.501-4.573,3.116-7.108c2.578-10.631,1.316-22.148-3.5-31.969
			c-0.293-0.599-0.609-1.205-1.091-1.667c-1.201-1.15-3.057-1.123-4.728-0.984c-0.062,0.003-0.124,0.01-0.184,0.014
			c-7.069,0.617-14.14,1.233-21.209,1.851c-1.969,0.171-3.951,0.346-5.85,0.888c-2.193,0.626-4.213,1.725-6.279,2.692
			c-3.001,1.403-6.146,2.203-9.213,3.387c-1.797,0.692-2.989,1.429-3.389,3.408C512.256,172.108,515.765,179.344,517.886,184.273z"
			/>
		<g>
			<g>
				<path fill="#E5DAC4" d="M561.017,156.644c6.509-6.354,15.151-11.981,23.996-14.151c4.767-1.169,0.979-1.715,0.734-1.468
					c-6.413,6.467-17.84,9.648-24.349,16.002C561.149,157.269,560.768,156.887,561.017,156.644L561.017,156.644z"/>
			</g>
		</g>
		<g>
			<g>
				<path fill="#E5DAC4" d="M568.203,174.786c2.407,1.41,5.155,1.959,7.882,2.366c3.215,0.48,10.113,0.854,13.332,1.31
					c0.339,0.048-0.734,1.468-3.683,0.601c-3.164-0.93-6.534-0.904-9.796-1.392c-2.775-0.415-5.561-0.986-8.009-2.42
					C567.629,175.076,567.903,174.61,568.203,174.786L568.203,174.786z"/>
			</g>
		</g>
		<path fill="#E5DAC4" d="M544.695,173.269c0.551,0.727,1.072,1.512,1.25,2.407c0.069,0.347,0.029,0.799-0.302,0.925
			c-0.152,0.058-0.323,0.024-0.477-0.031c-0.9-0.323-1.404-1.269-2.177-1.833c-0.123-0.09-0.286-0.172-0.419-0.098
			c-0.089,0.049-0.132,0.153-0.162,0.25c-0.305,0.983-0.007,2.068-0.264,3.065c-0.031,0.12-0.073,0.243-0.165,0.326
			c-0.189,0.172-0.493,0.097-0.716-0.029c-0.911-0.518-1.28-1.618-1.592-2.618c-0.665-2.129-1.407-4.233-2.223-6.309
			c-0.708-1.801-1.443-7.146,1.116-3.657C540.496,168.302,542.724,170.666,544.695,173.269z"/>
		<path fill="#E5DAC4" d="M554.238,203.05c1.493-0.624,2.958-1.31,4.383-2.015c2.607-1.289,5.252-2.715,7.082-4.976
			c1.643-2.028,2.501-4.573,3.116-7.108c2.578-10.631,1.316-22.148-3.5-31.969c-0.293-0.599-0.609-1.205-1.091-1.667
			c-1.201-1.15-3.057-1.123-4.728-0.984c-0.75,1.958,0.746,4.079,1.186,6.003c0.64,2.805,0.636,5.768-0.099,8.555
			c-0.251,0.952-0.584,1.909-0.535,2.893c0.06,1.167,0.646,2.229,1.131,3.293c2.356,5.189,2.38,11.297,0.508,16.679
			C560.195,196.059,557.545,199.901,554.238,203.05z"/>
	</g>
	<g>
		
			<ellipse transform="matrix(0.9989 -0.0474 0.0474 0.9989 -6.4011 24.7186)" fill="#0A1D26" cx="518.501" cy="147.459" rx="1.344" ry="2.88"/>
		
			<ellipse transform="matrix(0.9989 -0.0474 0.0474 0.9989 -6.3258 25.9931)" fill="#0A1D26" cx="545.439" cy="146.508" rx="1.591" ry="3.409"/>
	</g>
</g>
</svg>
